<svg id="Layer_1" data-name="Layer 1" xmlns="http://www.w3.org/2000/svg" viewBox="0 0 237 318.25"><defs><style>.cls-1{fill:#fff;}</style></defs><title>winions-logo-white</title><path class="cls-1" d="M630,340c-.15-65.19-53.31-118.23-118.5-118.23S393.15,274.79,393,340V540H630ZM511.5,241.75A98.65,98.65,0,0,1,610,340v11H568a58.51,58.51,0,0,0-113.05.17H413V340A98.65,98.65,0,0,1,511.5,241.75ZM550,366.17a38.5,38.5,0,1,1-38.5-38.5A38.54,38.54,0,0,1,550,366.17ZM413,520V381.17h41.95A58.51,58.51,0,0,0,568.1,381H610V520Z" transform="translate(-393 -221.75)"/><circle class="cls-1" cx="118.5" cy="144.25" r="14"/><path class="cls-1" d="M430.45,449.51l4.37,16.37,5.38-16.37h5.24l5.38,16.37,4.37-16.37h6.89l-7.56,25.34H447.8l-5-14.69-5,14.69h-6.72l-7.56-25.34Z" transform="translate(-393 -221.75)"/><path class="cls-1" d="M471.43,449.51v25.34h-6.59V449.51Z" transform="translate(-393 -221.75)"/><path class="cls-1" d="M477,474.85V449.51h6.59L495.74,465V449.51h6.55v25.34h-6.55l-12.17-15.49v15.49Z" transform="translate(-393 -221.75)"/><path class="cls-1" d="M514.44,449.51v25.34h-6.59V449.51Z" transform="translate(-393 -221.75)"/><path class="cls-1" d="M518.82,462.18a13.06,13.06,0,0,1,8.35-12.35,16.12,16.12,0,0,1,11.31,0,13.36,13.36,0,0,1,4.45,2.84,13,13,0,0,1,2.91,4.25,13.79,13.79,0,0,1,0,10.52,13,13,0,0,1-2.91,4.25,13.36,13.36,0,0,1-4.45,2.84,16.12,16.12,0,0,1-11.31,0,13.11,13.11,0,0,1-8.35-12.35Zm6.89,0a6.75,6.75,0,0,0,.57,2.79,7,7,0,0,0,3.81,3.68,7.46,7.46,0,0,0,5.48,0,7.17,7.17,0,0,0,2.29-1.46,6.94,6.94,0,0,0,1.56-2.22,7.09,7.09,0,0,0,0-5.58,7,7,0,0,0-1.56-2.22,7.19,7.19,0,0,0-2.29-1.46,7.46,7.46,0,0,0-5.48,0,7,7,0,0,0-3.81,3.68A6.75,6.75,0,0,0,525.71,462.18Z" transform="translate(-393 -221.75)"/><path class="cls-1" d="M551.22,474.85V449.51h6.59L570,465V449.51h6.55v25.34H570l-12.17-15.49v15.49Z" transform="translate(-393 -221.75)"/><path class="cls-1" d="M595.77,456a8.16,8.16,0,0,0-2.15-1.29,5.71,5.71,0,0,0-2.08-.42,3.38,3.38,0,0,0-2.08.61,1.88,1.88,0,0,0-.81,1.58,1.57,1.57,0,0,0,.4,1.11,3.5,3.5,0,0,0,1.06.76,8.92,8.92,0,0,0,1.48.55q.82.24,1.63.5a10.18,10.18,0,0,1,4.72,2.87,7.09,7.09,0,0,1,1.5,4.69,9.14,9.14,0,0,1-.66,3.53,7.37,7.37,0,0,1-1.92,2.71,8.83,8.83,0,0,1-3.09,1.75,12.88,12.88,0,0,1-4.15.62,15.26,15.26,0,0,1-8.91-2.86l2.82-5.31a11.5,11.5,0,0,0,2.92,2,7,7,0,0,0,2.86.64,3.42,3.42,0,0,0,2.4-.74,2.25,2.25,0,0,0,.79-1.68,2.28,2.28,0,0,0-.2-1,2.16,2.16,0,0,0-.67-.77,5.37,5.37,0,0,0-1.23-.66q-.76-.3-1.83-.67-1.28-.4-2.5-.89a7.91,7.91,0,0,1-2.19-1.29,6,6,0,0,1-1.55-2,7.19,7.19,0,0,1-.59-3.11,9,9,0,0,1,.62-3.41,7.59,7.59,0,0,1,1.75-2.62,7.8,7.8,0,0,1,2.76-1.7,10.41,10.41,0,0,1,3.65-.6,16,16,0,0,1,3.93.52,17.33,17.33,0,0,1,3.93,1.53Z" transform="translate(-393 -221.75)"/><path class="cls-1" d="M438.54,499.61H431.2v6.8h8.17v2H428.77V489.59H439v2H431.2v6h7.33Z" transform="translate(-393 -221.75)"/><path class="cls-1" d="M446.46,498.58c0-1.4,0-2.55-.11-3.67h2.18l.14,2.24h.06a5,5,0,0,1,4.48-2.55c1.88,0,4.79,1.12,4.79,5.77v8.09h-2.46v-7.81c0-2.18-.81-4-3.13-4a3.5,3.5,0,0,0-3.3,2.52,3.55,3.55,0,0,0-.17,1.15v8.15h-2.46Z" transform="translate(-393 -221.75)"/><path class="cls-1" d="M469,491v3.89h3.53v1.88H469v7.31c0,1.68.48,2.63,1.85,2.63a5.44,5.44,0,0,0,1.43-.17l.11,1.85a6,6,0,0,1-2.18.34,3.41,3.41,0,0,1-2.66-1,5,5,0,0,1-1-3.53v-7.39h-2.1v-1.88h2.1v-3.25Z" transform="translate(-393 -221.75)"/><path class="cls-1" d="M480.61,502.13c.06,3.33,2.18,4.7,4.65,4.7a8.9,8.9,0,0,0,3.75-.7l.42,1.76a11,11,0,0,1-4.51.84c-4.17,0-6.66-2.74-6.66-6.83s2.41-7.31,6.35-7.31c4.42,0,5.6,3.89,5.6,6.38a9.44,9.44,0,0,1-.08,1.15Zm7.22-1.76c0-1.57-.64-4-3.41-4-2.49,0-3.58,2.29-3.78,4Z" transform="translate(-393 -221.75)"/><path class="cls-1" d="M497.51,499.14c0-1.6,0-3-.11-4.23h2.16l.08,2.66h.11a4.06,4.06,0,0,1,3.75-3,2.66,2.66,0,0,1,.7.08V497a3.69,3.69,0,0,0-.84-.08,3.45,3.45,0,0,0-3.3,3.16,6.91,6.91,0,0,0-.11,1.15v7.22h-2.44Z" transform="translate(-393 -221.75)"/><path class="cls-1" d="M511,499.33c0-1.74-.06-3.13-.11-4.42h2.21l.11,2.32h.06a5.33,5.33,0,0,1,4.82-2.63c3.28,0,5.74,2.77,5.74,6.89,0,4.87-3,7.28-6.16,7.28a4.75,4.75,0,0,1-4.17-2.13h-.06V514H511Zm2.44,3.61a5.55,5.55,0,0,0,.11,1,3.8,3.8,0,0,0,3.7,2.88c2.6,0,4.12-2.13,4.12-5.24,0-2.71-1.43-5-4-5a4.27,4.27,0,0,0-3.89,4.06Z" transform="translate(-393 -221.75)"/><path class="cls-1" d="M531.18,499.14c0-1.6,0-3-.11-4.23h2.16l.08,2.66h.11a4.06,4.06,0,0,1,3.75-3,2.66,2.66,0,0,1,.7.08V497a3.69,3.69,0,0,0-.84-.08,3.45,3.45,0,0,0-3.3,3.16,6.91,6.91,0,0,0-.11,1.15v7.22h-2.44Z" transform="translate(-393 -221.75)"/><path class="cls-1" d="M547.33,491.1a1.53,1.53,0,0,1-3.05,0,1.5,1.5,0,0,1,1.54-1.54A1.46,1.46,0,0,1,547.33,491.1Zm-2.74,17.36V494.91H547v13.55Z" transform="translate(-393 -221.75)"/><path class="cls-1" d="M554.86,505.94a6.45,6.45,0,0,0,3.25,1c1.79,0,2.63-.9,2.63-2s-.7-1.82-2.52-2.49c-2.44-.87-3.58-2.21-3.58-3.83,0-2.18,1.76-4,4.67-4a6.77,6.77,0,0,1,3.33.84l-.62,1.79a5.27,5.27,0,0,0-2.77-.78c-1.46,0-2.27.84-2.27,1.85s.81,1.62,2.58,2.29c2.35.9,3.56,2.07,3.56,4.09,0,2.38-1.85,4.06-5.07,4.06a7.72,7.72,0,0,1-3.81-.92Z" transform="translate(-393 -221.75)"/><path class="cls-1" d="M572,502.13c.06,3.33,2.18,4.7,4.65,4.7a8.9,8.9,0,0,0,3.75-.7l.42,1.76a11,11,0,0,1-4.51.84c-4.17,0-6.66-2.74-6.66-6.83S572,494.6,576,494.6c4.42,0,5.6,3.89,5.6,6.38a9.44,9.44,0,0,1-.08,1.15Zm7.22-1.76c0-1.57-.64-4-3.41-4-2.49,0-3.58,2.29-3.78,4Z" transform="translate(-393 -221.75)"/><path class="cls-1" d="M588.45,505.94a6.45,6.45,0,0,0,3.25,1c1.79,0,2.63-.9,2.63-2s-.7-1.82-2.52-2.49c-2.44-.87-3.58-2.21-3.58-3.83,0-2.18,1.76-4,4.67-4a6.77,6.77,0,0,1,3.33.84l-.62,1.79a5.27,5.27,0,0,0-2.77-.78c-1.46,0-2.27.84-2.27,1.85s.81,1.62,2.58,2.29c2.35.9,3.56,2.07,3.56,4.09,0,2.38-1.85,4.06-5.07,4.06a7.72,7.72,0,0,1-3.81-.92Z" transform="translate(-393 -221.75)"/><path class="cls-1" d="M444.37,275s48.62,6.77,59.08,24c0,0,8.62-9.85-2.46-16.62S444.37,275,444.37,275Z" transform="translate(-393 -221.75)"/><path class="cls-1" d="M578.63,275s-48.62,6.77-59.08,24c0,0-8.62-9.85,2.46-16.62S578.63,275,578.63,275Z" transform="translate(-393 -221.75)"/></svg>